{
  "asset": {
    "generator": "Khronos glTF Blender I/O v3.4.50",
    "version": "2.0"
  },
  "scene": 0,
  "scenes": [
    {
      "name": "Scene",
      "nodes": [
        0
      ]
    }
  ],
  "nodes": [
    {
      "mesh": 0,
      "name": "planter_box_03"
    }
  ],
  "materials": [
    {
      "doubleSided": true,
      "name": "planter_box_03",
      "normalTexture": {
        "index": 0
      },
      "pbrMetallicRoughness": {
        "baseColorTexture": {
          "index": 1
        },
        "metallicRoughnessTexture": {
          "index": 2
        }
      }
    }
  ],
  "meshes": [
    {
      "name": "Plane.002",
      "primitives": [
        {
          "attributes": {
            "POSITION": 0,
            "TEXCOORD_0": 1,
            "NORMAL": 2
          },
          "indices": 3,
          "material": 0
        }
      ]
    }
  ],
  "textures": [
    {
      "sampler": 0,
      "source": 0
    },
    {
      "sampler": 0,
      "source": 1
    },
    {
      "sampler": 0,
      "source": 2
    }
  ],
  "images": [
    {
      "mimeType": "image/jpeg",
      "name": "planter_box_03_nor_gl",
      "uri": "textures/planter_box_03_nor_gl_1k.jpg"
    },
    {
      "mimeType": "image/jpeg",
      "name": "planter_box_03_diff",
      "uri": "textures/planter_box_03_diff_1k.jpg"
    },
    {
      "mimeType": "image/jpeg",
      "name": "planter_box_03_metal-planter_box_03_rough",
      "uri": "textures/planter_box_03_arm_1k.jpg"
    }
  ],
  "accessors": [
    {
      "bufferView": 0,
      "componentType": 5126,
      "count": 10671,
      "max": [
        0.45697054266929626,
        0.8551525473594666,
        0.32700830698013306
      ],
      "min": [
        -0.45733642578125,
        0.00004931207877234556,
        -0.32853537797927856
      ],
      "type": "VEC3"
    },
    {
      "bufferView": 1,
      "componentType": 5126,
      "count": 10671,
      "type": "VEC2"
    },
    {
      "bufferView": 2,
      "componentType": 5126,
      "count": 10671,
      "type": "VEC3"
    },
    {
      "bufferView": 3,
      "componentType": 5123,
      "count": 39336,
      "type": "SCALAR"
    }
  ],
  "bufferViews": [
    {
      "buffer": 0,
      "byteLength": 128052,
      "byteOffset": 0,
      "target": 34962
    },
    {
      "buffer": 0,
      "byteLength": 85368,
      "byteOffset": 128052,
      "target": 34962
    },
    {
      "buffer": 0,
      "byteLength": 128052,
      "byteOffset": 213420,
      "target": 34962
    },
    {
      "buffer": 0,
      "byteLength": 78672,
      "byteOffset": 341472,
      "target": 34963
    }
  ],
  "samplers": [
    {
      "magFilter": 9729,
      "minFilter": 9987
    }
  ],
  "buffers": [
    {
      "byteLength": 420144,
      "uri": "planter_box_03.bin"
    }
  ]
}